<?xml version="1.0" encoding="UTF-8"?>
<svg id="Capa_2" data-name="Capa 2" xmlns="http://www.w3.org/2000/svg" viewBox="0 0 753.41 520.1">
  <defs>
    <style>
      .cls-1 {
        fill: #fff;
      }
    </style>
  </defs>
  <g id="Capa_1-2" data-name="Capa 1">
    <g>
      <g>
        <path class="cls-1" d="M444.76,136.02c-11.1-17.81-22.29-36.76-33.39-56.85-11.83-21.41-22.51-42.22-32.16-62.25-9.09,19.77-19.5,40.63-31.46,62.25-11.31,20.45-22.76,39.37-34.03,56.75h-.07s.04.01.05.02c-.02.03-.04.05-.05.08h.31c30.99,9.42,57.04,32.66,67.52,63.47,2.83-4.93,8.86-15.45,12.94-21.62,11.88-18,29.74-34.82,50.33-41.85Z"/>
        <path class="cls-1" d="M294.29,140.62h-30.09c-.92,28.47,14.56,55.28,37.01,71.94,12.83,9.53,29.34,16.46,41.79,26.4,5.96,4.76,10.66,12.31,15.55,16.54,1.7,1.47,2.26,1.74,4.63,1.39v-38.09c0-33.18-33.27-78.18-68.88-78.18Z"/>
        <path class="cls-1" d="M493.32,160.39c1.57-6.43,2.54-13.13,2.27-19.78h-30.09c-19.69,0-44.29,22.32-53.91,38.35-4.62,7.7-14.98,32.97-14.98,41.17v38.09c2.59.61,2.57-.94,3.77-2.25,32.64-35.77,80.23-43.66,92.94-95.58Z"/>
        <path class="cls-1" d="M336.42,79.14h-52.83c-2.16,2.13-4.55,4.85-6.83,8.24-3.98,5.93-6.07,11.62-7.21,15.82h53.5l13.38-24.06Z"/>
        <path class="cls-1" d="M264.16,123.58c-.23,3.67.21,6.77.71,9.02,12.71-.07,25.41-.15,38.12-.22l13.38-19.82h-49.49c-1.08,2.42-2.41,6.22-2.71,11.03Z"/>
        <path class="cls-1" d="M475.39,76.47h-52.83l13.38,24.06h53.5c-1.14-4.2-3.23-9.89-7.21-15.82-2.28-3.39-4.67-6.11-6.83-8.24Z"/>
        <path class="cls-1" d="M494.11,129.92c.5-2.25.94-5.35.71-9.02-.3-4.81-1.64-8.61-2.71-11.03h-49.49l13.38,19.82c12.71.07,25.41.15,38.12.22Z"/>
        <path class="cls-1" d="M519.96,112.81l-.06-.24c-10.87-44.65-37.02-80.37-79.36-99.58-15.2-6.84-31.36-10.91-48.23-12.4-1.63-.06-9.67-.64-12.55-.59-2.92.06-11.41.52-13.15.59-16.87,1.49-33.03,5.56-48.23,12.4-42.34,19.2-68.49,54.93-79.36,99.58l-.06.24c-18.45,72.18,34.17,151.97,106.31,167.47,22.6,5.53,5.54-24.28-2.23-30.62-5.81-5.73-12.87-10.56-20.22-15.13-11.3-7.04-23.14-13.3-33.11-22.19-24.95-22.05-36.82-55.03-34.26-88.2,3.25-32.69,28.95-74.28,63.91-89.48,3.15-1.29,12.43-5.72,19.41-7.73,3.16-.91,4.94,3.5,2.06,5.08-6.11,3.36-15.07,6.67-17.25,7.77-11.85,4.75-23.06,13.63-31.62,22.31-1.95,2.34-6.52,6.74-1.16,7.55,11.12.54,33.7.08,44.15.2,3.78.12,6.74-.68,8.63-4.24,7.18-11.64,32.82-58.95,33.16-59.68.34-.74,1.8-3.24,2.77-3.18.63.04,1.1.74,2.03,2.25.63,1.02,1.19,2.08,1.67,3.18,6.37,14.34,25.3,46.42,32.09,57.43,1.88,3.57,4.85,4.36,8.63,4.24,10.46-.12,33.03.34,44.15-.2,5.37-.81.8-5.21-1.16-7.55-8.55-8.68-19.76-17.56-31.62-22.31-2.18-1.1-11.14-4.42-17.25-7.77-2.88-1.58-1.11-5.99,2.06-5.08,6.99,2.01,16.26,6.44,19.41,7.73,34.96,15.21,60.66,56.79,63.91,89.48,2.56,33.16-9.3,66.15-34.26,88.2-9.97,8.89-21.81,15.15-33.11,22.19-7.35,4.57-14.41,9.4-20.22,15.13-7.77,6.35-24.82,36.15-2.23,30.62,72.14-15.49,124.76-95.29,106.31-167.47Z"/>
      </g>
      <path class="cls-1" d="M21.49,433.5c-.64.59-1.66.88-3.05.88H3.85c-1.39,0-2.38-.29-2.97-.88-.59-.59-.88-1.58-.88-2.97v-104.58c0-1.39.29-2.38.88-2.97s1.58-.88,2.97-.88h14.6c1.39,0,2.41.3,3.05.88.64.59.96,1.58.96,2.97v104.58c0,1.39-.32,2.38-.96,2.97Z"/>
      <path class="cls-1" d="M123.27,322.98c.59-.59,1.58-.88,2.97-.88h14.6c1.39,0,2.41.3,3.05.88.64.59.96,1.58.96,2.97v104.58c0,1.92-.3,3.37-.88,4.33-.59.96-1.52,1.44-2.81,1.44-.96,0-1.98-.38-3.05-1.12-1.07-.75-2.57-2.08-4.49-4.01l-61.11-64.64v64c0,1.39-.32,2.38-.96,2.97-.64.59-1.66.88-3.05.88h-14.6c-1.39,0-2.38-.29-2.97-.88-.59-.59-.88-1.58-.88-2.97v-104.58c0-3.85,1.17-5.77,3.53-5.77.96,0,2,.38,3.13,1.12,1.12.75,2.65,2.08,4.57,4.01l61.11,64.64v-64c0-1.39.29-2.38.88-2.97Z"/>
      <path class="cls-1" d="M250.63,342.07c-.59.59-1.58.88-2.97.88h-27.59c-.75,0-1.28.16-1.6.48-.32.32-.48.86-.48,1.6v85.5c0,1.39-.32,2.38-.96,2.97-.64.59-1.66.88-3.05.88h-14.6c-1.39,0-2.38-.29-2.97-.88-.59-.59-.88-1.58-.88-2.97v-85.5c0-.75-.19-1.28-.56-1.6-.38-.32-.94-.48-1.68-.48h-27.59c-1.39,0-2.38-.29-2.97-.88-.59-.59-.88-1.58-.88-2.97v-13.15c0-1.39.29-2.38.88-2.97s1.58-.88,2.97-.88h81.97c1.39,0,2.38.3,2.97.88.59.59.88,1.58.88,2.97v13.15c0,1.39-.3,2.38-.88,2.97Z"/>
      <path class="cls-1" d="M339.89,414.41c.64.59.96,1.58.96,2.97v13.15c0,1.39-.32,2.38-.96,2.97-.64.59-1.66.88-3.05.88h-64.48c-1.39,0-2.38-.29-2.97-.88-.59-.59-.88-1.58-.88-2.97v-104.58c0-1.39.29-2.38.88-2.97s1.58-.88,2.97-.88h64.32c1.39,0,2.41.3,3.05.88.64.59.96,1.58.96,2.97v13.15c0,1.39-.32,2.38-.96,2.97-.64.59-1.66.88-3.05.88h-43.63c-.75,0-1.28.16-1.6.48-.32.32-.48.86-.48,1.6v20.37c0,.75.16,1.28.48,1.6.32.32.85.48,1.6.48h38.18c1.39,0,2.41.32,3.05.96s.96,1.66.96,3.05v12.99c0,1.39-.32,2.38-.96,2.97-.64.59-1.66.88-3.05.88h-38.18c-.75,0-1.28.14-1.6.4-.32.27-.48.83-.48,1.68v21.01c0,.75.16,1.28.48,1.6.32.32.85.48,1.6.48h43.79c1.39,0,2.41.3,3.05.88Z"/>
      <path class="cls-1" d="M386.25,413.05c.32.32.85.48,1.6.48h44.11c1.39,0,2.38.3,2.97.88.59.59.88,1.58.88,2.97v13.15c0,1.39-.29,2.38-.88,2.97s-1.58.88-2.97.88h-64.8c-1.39,0-2.38-.29-2.97-.88-.59-.59-.88-1.58-.88-2.97v-104.58c0-1.39.29-2.38.88-2.97s1.58-.88,2.97-.88h14.6c1.39,0,2.41.3,3.05.88.64.59.96,1.58.96,2.97v85.5c0,.75.16,1.28.48,1.6Z"/>
      <path class="cls-1" d="M526.6,414.41c.64.59.96,1.58.96,2.97v13.15c0,1.39-.32,2.38-.96,2.97-.64.59-1.66.88-3.05.88h-64.48c-1.39,0-2.38-.29-2.97-.88-.59-.59-.88-1.58-.88-2.97v-104.58c0-1.39.29-2.38.88-2.97s1.58-.88,2.97-.88h64.32c1.39,0,2.41.3,3.05.88.64.59.96,1.58.96,2.97v13.15c0,1.39-.32,2.38-.96,2.97-.64.59-1.66.88-3.05.88h-43.63c-.75,0-1.28.16-1.6.48-.32.32-.48.86-.48,1.6v20.37c0,.75.16,1.28.48,1.6.32.32.85.48,1.6.48h38.18c1.39,0,2.41.32,3.05.96s.96,1.66.96,3.05v12.99c0,1.39-.32,2.38-.96,2.97-.64.59-1.66.88-3.05.88h-38.18c-.75,0-1.28.14-1.6.4-.32.27-.48.83-.48,1.68v21.01c0,.75.16,1.28.48,1.6.32.32.85.48,1.6.48h43.79c1.39,0,2.41.3,3.05.88Z"/>
      <path class="cls-1" d="M629.26,327.07c.96-1.92,1.92-3.23,2.89-3.93.96-.69,2.41-1.04,4.33-1.04h14.28c2.35,0,3.53.75,3.53,2.25,0,.54-.27,1.44-.8,2.73l-49.89,101.86c-1.5,3.21-2.73,5.35-3.69,6.42-.96,1.07-2.03,1.6-3.21,1.6-1.07,0-2.09-.56-3.05-1.68-.96-1.12-2.19-3.23-3.69-6.34l-50.21-101.86c-.53-1.28-.8-2.19-.8-2.73,0-1.5,1.18-2.25,3.53-2.25h15.24c1.82,0,3.21.35,4.17,1.04.96.7,1.92,2,2.89,3.93l32.4,68.33,32.08-68.33Z"/>
      <path class="cls-1" d="M663.1,429.41c-.96,2.03-1.92,3.37-2.89,4.01-.96.64-2.41.96-4.33.96h-14.28c-2.35,0-3.53-.75-3.53-2.25,0-.53.27-1.44.8-2.73l49.89-101.86c1.5-3.21,2.73-5.35,3.69-6.42.96-1.07,2.03-1.6,3.21-1.6s2.19.54,3.05,1.6c.85,1.07,2.09,3.21,3.69,6.42l50.21,101.86c.53,1.28.8,2.19.8,2.73,0,1.5-1.18,2.25-3.53,2.25h-15.24c-1.82,0-3.21-.32-4.17-.96-.96-.64-1.92-1.98-2.89-4.01l-32.4-68.33-32.08,68.33Z"/>
      <path class="cls-1" d="M189.19,482.53c-.24.24-.63.35-1.18.35h-11c-.3,0-.51.06-.64.19-.13.13-.19.34-.19.64v34.08c0,.55-.13.95-.38,1.18-.26.24-.66.35-1.22.35h-5.82c-.55,0-.95-.12-1.18-.35-.23-.23-.35-.63-.35-1.18v-34.08c0-.3-.07-.51-.22-.64-.15-.13-.37-.19-.67-.19h-11c-.55,0-.95-.12-1.18-.35-.24-.23-.35-.63-.35-1.18v-5.24c0-.55.12-.95.35-1.18s.63-.35,1.18-.35h32.68c.55,0,.95.12,1.18.35.23.24.35.63.35,1.18v5.24c0,.55-.12.95-.35,1.18Z"/>
      <path class="cls-1" d="M224.78,511.37c.26.24.38.63.38,1.18v5.24c0,.55-.13.95-.38,1.18-.26.24-.66.35-1.22.35h-25.71c-.55,0-.95-.12-1.18-.35-.24-.23-.35-.63-.35-1.18v-41.69c0-.55.12-.95.35-1.18s.63-.35,1.18-.35h25.64c.55,0,.96.12,1.22.35.26.24.38.63.38,1.18v5.24c0,.55-.13.95-.38,1.18-.26.24-.66.35-1.22.35h-17.39c-.3,0-.51.06-.64.19-.13.13-.19.34-.19.64v8.12c0,.3.06.51.19.64s.34.19.64.19h15.22c.55,0,.96.13,1.22.38.26.26.38.66.38,1.22v5.18c0,.55-.13.95-.38,1.18-.26.24-.66.35-1.22.35h-15.22c-.3,0-.51.05-.64.16-.13.11-.19.33-.19.67v8.38c0,.3.06.51.19.64.13.13.34.19.64.19h17.46c.55,0,.96.12,1.22.35Z"/>
      <path class="cls-1" d="M266.98,507.63c.47-.38.87-.58,1.22-.58s.68.23,1.02.7l2.81,4.03c.26.38.38.7.38.96,0,.21-.06.43-.19.64-.13.21-.34.45-.64.7-2.3,1.92-4.88,3.4-7.74,4.44-2.86,1.04-5.84,1.57-8.95,1.57-4.35,0-8.3-.99-11.86-2.97-3.56-1.98-6.36-4.72-8.41-8.22-2.05-3.5-3.07-7.42-3.07-11.77s1.03-8.42,3.1-11.96c2.07-3.54,4.9-6.32,8.51-8.35,3.6-2.02,7.66-3.04,12.18-3.04,3.11,0,6.05.53,8.83,1.6,2.77,1.07,5.29,2.52,7.55,4.35.21.21.38.41.51.61.13.19.19.37.19.54,0,.3-.15.66-.45,1.09l-2.81,3.97c-.38.51-.77.77-1.15.77-.3,0-.68-.17-1.15-.51-1.71-1.28-3.54-2.28-5.5-3.01-1.96-.72-4.01-1.09-6.14-1.09-2.69,0-5.13.63-7.32,1.89s-3.92,3.02-5.18,5.28c-1.26,2.26-1.89,4.84-1.89,7.74s.63,5.34,1.89,7.58c1.26,2.24,2.97,4,5.15,5.28,2.17,1.28,4.63,1.92,7.35,1.92,4.39,0,8.31-1.38,11.77-4.16Z"/>
      <path class="cls-1" d="M316.93,518.98c-.26.24-.66.35-1.22.35h-5.82c-.55,0-.95-.12-1.18-.35-.24-.23-.35-.63-.35-1.18v-16.37c0-.3-.06-.51-.19-.64s-.36-.19-.7-.19h-17.78c-.3,0-.51.05-.64.16-.13.11-.19.33-.19.67v16.37c0,.55-.13.95-.38,1.18-.26.24-.66.35-1.21.35h-5.82c-.55,0-.95-.12-1.18-.35-.24-.23-.35-.63-.35-1.18v-41.69c0-.55.12-.95.35-1.18s.63-.35,1.18-.35h5.82c.55,0,.96.12,1.21.35.26.24.38.63.38,1.18v15.35c0,.3.06.51.19.64.13.13.34.19.64.19h17.78c.3,0,.52-.06.67-.19s.22-.34.22-.64v-15.35c0-.55.12-.95.35-1.18s.63-.35,1.18-.35h5.82c.55,0,.96.12,1.22.35.26.24.38.63.38,1.18v41.69c0,.55-.13.95-.38,1.18Z"/>
      <path class="cls-1" d="M357.5,474.92c.23-.23.63-.35,1.18-.35h5.82c.55,0,.96.12,1.22.35.26.24.38.63.38,1.18v41.69c0,.77-.12,1.34-.35,1.73-.24.38-.61.58-1.12.58-.38,0-.79-.15-1.22-.45-.43-.3-1.02-.83-1.79-1.6l-24.36-25.77v25.52c0,.55-.13.95-.38,1.18-.26.24-.66.35-1.21.35h-5.82c-.55,0-.95-.12-1.18-.35-.24-.23-.35-.63-.35-1.18v-41.69c0-1.54.47-2.3,1.41-2.3.38,0,.8.15,1.25.45s1.05.83,1.82,1.6l24.36,25.77v-25.52c0-.55.12-.95.35-1.18Z"/>
      <path class="cls-1" d="M377.61,485.16c2.05-3.56,4.86-6.34,8.44-8.35,3.58-2,7.61-3.01,12.09-3.01s8.51.99,12.09,2.97c3.58,1.98,6.38,4.73,8.41,8.25,2.02,3.52,3.04,7.47,3.04,11.86s-1.02,8.42-3.07,11.96c-2.05,3.54-4.87,6.3-8.47,8.28-3.6,1.98-7.66,2.97-12.18,2.97s-8.43-.98-11.99-2.94c-3.56-1.96-6.35-4.69-8.38-8.18-2.03-3.5-3.04-7.44-3.04-11.83s1.02-8.43,3.07-11.99ZM385.67,504.66c1.24,2.24,2.93,3.99,5.08,5.24,2.15,1.26,4.57,1.89,7.26,1.89s5.06-.63,7.26-1.89c2.2-1.26,3.93-3.02,5.21-5.28,1.28-2.26,1.92-4.8,1.92-7.61s-.63-5.49-1.89-7.77c-1.26-2.28-2.98-4.04-5.18-5.28s-4.62-1.85-7.26-1.85-5.11.63-7.26,1.89-3.86,3.02-5.12,5.28c-1.26,2.26-1.89,4.84-1.89,7.74s.62,5.4,1.85,7.64Z"/>
      <path class="cls-1" d="M439.26,510.83c.13.13.34.19.64.19h17.59c.55,0,.95.12,1.18.35.23.24.35.63.35,1.18v5.24c0,.55-.12.95-.35,1.18s-.63.35-1.18.35h-25.84c-.55,0-.95-.12-1.18-.35-.24-.23-.35-.63-.35-1.18v-41.69c0-.55.12-.95.35-1.18s.63-.35,1.18-.35h5.82c.55,0,.96.12,1.21.35.26.24.38.63.38,1.18v34.08c0,.3.06.51.19.64Z"/>
      <path class="cls-1" d="M467.27,485.16c2.05-3.56,4.86-6.34,8.44-8.35,3.58-2,7.61-3.01,12.09-3.01s8.51.99,12.09,2.97c3.58,1.98,6.38,4.73,8.41,8.25,2.02,3.52,3.04,7.47,3.04,11.86s-1.02,8.42-3.07,11.96c-2.05,3.54-4.87,6.3-8.47,8.28-3.6,1.98-7.66,2.97-12.18,2.97s-8.43-.98-11.99-2.94c-3.56-1.96-6.35-4.69-8.38-8.18-2.03-3.5-3.04-7.44-3.04-11.83s1.02-8.43,3.07-11.99ZM475.32,504.66c1.24,2.24,2.93,3.99,5.08,5.24,2.15,1.26,4.57,1.89,7.26,1.89s5.06-.63,7.26-1.89c2.2-1.26,3.93-3.02,5.21-5.28,1.28-2.26,1.92-4.8,1.92-7.61s-.63-5.49-1.89-7.77c-1.26-2.28-2.98-4.04-5.18-5.28s-4.62-1.85-7.26-1.85-5.11.63-7.26,1.89-3.86,3.02-5.12,5.28c-1.26,2.26-1.89,4.84-1.89,7.74s.62,5.4,1.85,7.64Z"/>
      <path class="cls-1" d="M558.68,515.08c-.19.32-.54.61-1.05.86-5.46,2.77-11.17,4.16-17.14,4.16-4.31,0-8.24-.95-11.8-2.85-3.56-1.9-6.36-4.57-8.41-8.03-2.05-3.45-3.07-7.42-3.07-11.89s1.04-8.75,3.13-12.31,4.95-6.32,8.57-8.28c3.62-1.96,7.69-2.94,12.21-2.94,3.11,0,6.08.47,8.89,1.41,2.81.94,5.31,2.17,7.48,3.71.64.38.96.81.96,1.28,0,.34-.15.72-.45,1.15l-2.56,3.9c-.38.55-.79.83-1.21.83-.3,0-.68-.13-1.15-.38-3.84-2.39-7.82-3.58-11.96-3.58-2.9,0-5.46.64-7.67,1.92-2.22,1.28-3.93,3.05-5.15,5.31-1.21,2.26-1.82,4.84-1.82,7.74s.63,5.47,1.89,7.71,2.97,3.98,5.15,5.21c2.17,1.24,4.6,1.85,7.29,1.85,3.24,0,6.01-.47,8.31-1.41.38-.17.63-.34.73-.51.11-.17.16-.45.16-.83v-10.1c0-.55.12-.95.35-1.18.23-.23.63-.35,1.18-.35h5.88c.55,0,.95.12,1.18.35.23.24.35.63.35,1.18v14.71c0,.6-.1,1.05-.29,1.37Z"/>
      <path class="cls-1" d="M594.27,476.23c.43-.68.81-1.13,1.15-1.34.34-.21.9-.32,1.66-.32h6.33c.81,0,1.22.26,1.22.77,0,.3-.11.62-.32.96l-15.8,26.35v15.16c0,.55-.13.95-.38,1.18-.26.24-.66.35-1.22.35h-5.82c-.56,0-.95-.12-1.18-.35-.24-.23-.35-.63-.35-1.18v-14.84l-15.99-26.67c-.21-.34-.32-.66-.32-.96,0-.51.43-.77,1.28-.77h6.59c.72,0,1.27.11,1.63.32.36.21.76.66,1.18,1.34l10.1,17.78,10.23-17.78Z"/>
    </g>
  </g>
</svg>